# xmcd
#
# Track frame offsets: 
#        150
#        12440
#        25750
#        38683
#        49163
#        61693
#        73145
#        82155
#        94038
#        105065
#
# Disc length: 1536 seconds
#
# Revision: 4
# Processed by: cddbd v1.5.1PL0 Copyright (c) Steve Scherf et al.
# Submitted via: ExactAudioCopy v0.95a5
#
DISCID=7305fe0a
DTITLE=Various Artist - Billboard Top Country Hits - 1967
DYEAR=1967
DGENRE=Country
TTITLE0=Jack Greene - All The Time
TTITLE1=Merle Haggard and The Strangers - The Fugitive
TTITLE2=David Houston and Tammy Wynette - My Elusive Dreams
TTITLE3=George Jones - Walk Through This World With Me
TTITLE4=Bill Anderson and Jan Howard - For Loving You
TTITLE5=Wynn Stewart - It's Such A Pretty World Today
TTITLE6=Buck Owens and The Buckaroos - Sam's Place
TTITLE7=Tammy Wynette - I Don't Wanna Play House
TTITLE8=Sonny James - I'll Never Find Another You
TTITLE9=David Houston - You Mean The World To Me
EXTD=
EXTT0=
EXTT1=
EXTT2=
EXTT3=
EXTT4=
EXTT5=
EXTT6=
EXTT7=
EXTT8=
EXTT9=
PLAYORDER=
